<svg width="100" height="100" viewBox="0 0 100 100" fill="none" xmlns="http://www.w3.org/2000/svg">
<path d="M50 8.33333C27.0833 8.33333 8.33333 27.0833 8.33333 50C8.33333 72.9167 27.0833 91.6667 50 91.6667C72.9167 91.6667 91.6667 72.9167 91.6667 50C91.6667 27.0833 72.9167 8.33333 50 8.33333ZM50 83.3333C31.6667 83.3333 16.6667 68.3333 16.6667 50C16.6667 31.6667 31.6667 16.6667 50 16.6667C68.3333 16.6667 83.3333 31.6667 83.3333 50C83.3333 68.3333 68.3333 83.3333 50 83.3333Z" fill="#F87171"/>
<path d="M66.6667 33.3333C65 31.6667 62.5 31.6667 60.8333 33.3333L50 44.1667L39.1667 33.3333C37.5 31.6667 35 31.6667 33.3333 33.3333C31.6667 35 31.6667 37.5 33.3333 39.1667L44.1667 50L33.3333 60.8333C31.6667 62.5 31.6667 65 33.3333 66.6667C34.1667 67.5 35.4167 67.9167 36.25 67.9167C37.0833 67.9167 38.3333 67.5 39.1667 66.6667L50 55.8333L60.8333 66.6667C61.6667 67.5 62.9167 67.9167 63.75 67.9167C64.5833 67.9167 65.8333 67.5 66.6667 66.6667C68.3333 65 68.3333 62.5 66.6667 60.8333L55.8333 50L66.6667 39.1667C68.3333 37.5 68.3333 35 66.6667 33.3333Z" fill="#F87171"/>
</svg>
