<svg width="100" height="100" viewBox="0 0 100 100" fill="none" xmlns="http://www.w3.org/2000/svg">
<path d="M36.2255 42.5116C34.5351 40.8454 31.9994 40.8454 30.309 42.5116C28.6185 44.1779 28.6185 46.6773 30.309 48.3436L47.6359 66.6726C48.4812 67.5057 49.749 67.9223 50.5942 67.9223C51.862 67.9223 53.1298 67.5057 53.5525 66.256L94.9681 15.0182C96.2359 13.3519 96.2359 10.4359 94.1229 9.1862C92.8551 7.9365 90.3194 7.9365 88.629 10.0193L80.1768 20.4335C72.5698 12.9353 61.582 8.35307 50.5942 8.35307C27.3507 8.35307 8.33333 27.0986 8.33333 50.0099C8.33333 72.9211 27.3507 91.6667 50.5942 91.6667C73.8377 91.6667 92.8551 72.9211 92.8551 50.0099C92.8551 46.2608 92.4324 42.5116 91.1646 38.7625C90.3194 36.6797 88.2064 35.43 86.0933 35.8466C83.9803 36.2631 82.7125 38.7625 83.1351 40.8454C83.9803 43.7613 84.4029 47.0939 84.4029 50.0099C84.4029 68.3389 69.189 83.3353 50.5942 83.3353C31.9994 83.3353 16.7855 68.3389 16.7855 50.0099C16.7855 31.6809 31.9994 16.6844 50.5942 16.6844C59.8916 16.6844 68.3438 20.4335 75.1055 27.0986L50.5942 57.5081L36.2255 42.5116Z" fill="#0D9488"/>
</svg>
