<svg width="100" height="100" viewBox="0 0 100 100" fill="none" xmlns="http://www.w3.org/2000/svg">
<path d="M75.9238 26.5625C75.0943 26.5625 74.2647 26.5625 73.4352 26.5625C68.8726 18.0398 59.7474 12.5 49.7926 12.5C40.2526 12.5 31.5422 18.0398 26.5649 26.5625C25.7353 26.5625 24.9057 26.5625 24.0762 26.5625C13.2919 26.5625 4.16667 35.9375 4.16667 47.4432C4.16667 58.9489 13.2919 67.8977 24.491 67.8977H35.2753C37.764 67.8977 39.4231 66.1932 39.4231 63.6364C39.4231 61.0795 37.764 59.375 35.2753 59.375H24.491C17.8545 59.375 12.4623 53.8352 12.4623 47.4432C12.4623 41.0511 17.8545 35.0852 24.491 35.0852C25.7353 35.0852 26.9796 35.0852 27.8092 35.5114C29.8831 36.3636 31.957 35.0852 32.7866 32.9545C35.69 25.7102 42.3266 21.0227 50.2074 21.0227C58.0882 21.0227 64.7247 25.7102 67.6282 32.9545C68.4578 35.0852 70.5317 35.9375 72.6056 35.5114C73.8499 35.0852 74.6795 35.0852 75.9238 35.0852C82.5603 35.0852 87.9525 40.625 87.9525 47.4432C87.9525 54.2614 82.5603 59.375 75.9238 59.375H54.3552V46.5909L58.503 50.8523C59.3326 51.7045 60.5769 52.1307 61.4065 52.1307C62.2361 52.1307 63.4804 51.7045 64.31 50.8523C65.9691 49.1477 65.9691 46.5909 64.31 44.8864L52.6961 32.9545C52.2813 32.5284 51.8665 32.1023 51.4517 32.1023C50.6222 31.6761 49.3778 31.6761 48.1335 32.1023C47.7187 32.5284 47.3039 32.5284 46.8891 32.9545L35.69 44.8864C34.0309 46.5909 34.0309 49.5739 35.69 50.8523C37.3492 52.1307 39.8379 52.5568 41.497 50.8523L45.6448 46.5909V83.2386C45.6448 85.7955 47.3039 87.5 49.7926 87.5C52.2813 87.5 53.9404 85.7955 53.9404 83.2386V67.8977H75.5091C86.7082 67.8977 95.8333 58.5227 95.8333 47.017C95.8333 35.5114 87.1229 26.5625 75.9238 26.5625Z" fill="#0D9488"/>
</svg>
